# xmcd
#
# Track frame offsets:
#   150
#   16290
#   31507
#   47052
#   62085
#   77040
#   91685
#   106512
#   119454
#   134227
#   144655
#   159962
#   176152
#   191830
#   205870
#   221565
#   234452
#   247947
#
# Disc length: 3499 seconds
#
# Revision: 0
# Processed by: cddbd v1.5.1PL0 Copyright (c) Steve Scherf et al.
# Submitted via: GXTranscoder 2.0.1939
#
DISCID=f00da912
DTITLE=Varios - Glenn Miller Anthologie
DYEAR=1942
DGENRE=Orquesta
TTITLE0=In the mood
TTITLE1=Moonlight serenade
TTITLE2=Chattanooga choo choo
TTITLE3=American patrol
TTITLE4=Perfidia
TTITLE5=A string pearls
TTITLE6=I've got a gal in kalamazoo
TTITLE7=And the angels sing
TTITLE8=Pennsylvania 6-5000
TTITLE9=Boog it
TTITLE10=Stardust
TTITLE11=Wham
TTITLE12=Frenesi
TTITLE13=Elmer's tune
TTITLE14=Tuxedo junction
TTITLE15=Little brown jug
TTITLE16=Sun valley jump
TTITLE17=My blue heaven
EXTD=
EXTT0=
EXTT1=
EXTT2=
EXTT3=
EXTT4=
EXTT5=
EXTT6=
EXTT7=
EXTT8=
EXTT9=
EXTT10=
EXTT11=
EXTT12=
EXTT13=
EXTT14=
EXTT15=
EXTT16=
EXTT17=
PLAYORDER=
